<svg width="408" height="480" viewBox="0 0 408 480" fill="none" xmlns="http://www.w3.org/2000/svg">
<path d="M204 0C175.969 0 135.781 8.84375 111.5 25.7812C68 27.125 34.125 64.9688 28.75 118.75C24.625 160.031 28.375 180.531 30.5938 192.75C31 194.938 31.3438 196.781 31.5313 198.406C31.875 201.094 32.1563 204.469 32.375 208.031C27.8125 206.875 24.0313 207.219 21.3125 207.969C2.71876 212.938 -4.65625 241.375 4.125 274.125C10.9375 299.656 25.2813 318.406 40.375 322.5C65.375 401.219 128.719 479.312 204 479.312C279.312 479.312 342.625 401.25 367.625 322.5C382.719 318.406 397.062 299.656 403.906 274.125C407.781 259.656 408.594 245.188 406.156 233.344C403.344 219.562 396.438 210.531 386.719 207.938C383.688 207.125 379.375 206.812 374.156 208.5C373.75 189.656 371.094 173.562 366.031 159.844C364.031 154.438 364.625 152.531 364.594 152.531C366.844 150.75 378.594 152.344 389.75 156.969C392.531 158.094 395.656 157.625 397.938 155.719C400.219 153.781 401.25 150.75 400.625 147.875C380.406 55.2812 311.688 0 216.875 0H204ZM204 16H216.875C300.125 16 359.438 60.0625 381.531 137.5C371.906 135.25 360.281 134.5 353.5 141C347.906 146.375 347.031 154.594 351 165.375C357.25 182.312 359.438 203.75 357.688 230.906C357.406 235.312 360.75 239.125 365.156 239.406C365.344 239.406 365.5 239.406 365.656 239.406C369.844 239.406 373.375 236.188 373.625 231.938C373.781 229.969 373.844 228.062 373.906 226.125C374.375 225.938 374.844 225.844 375.281 225.594C377.344 224.219 380.312 222.781 382.594 223.375C386.031 224.312 389 229.25 390.5 236.531C392.406 245.875 391.656 258.062 388.469 270C381.938 294.375 368.594 307.344 361.5 307.344H361.469C357.938 307.344 354.812 309.656 353.781 313.062C331.594 387.719 273.031 463.312 204 463.312C135 463.312 76.4375 387.719 54.25 313.062C53.2188 309.656 50.0938 307.344 46.5625 307.344H46.5313C39.4375 307.344 26.0938 294.375 19.5625 270C12.6875 244.344 18.4688 225.281 25.4375 223.406C27.75 222.781 30.6875 224.25 32.75 225.594C32.7812 225.625 32.8125 225.594 32.8438 225.625C32.8125 227.719 32.7812 229.625 32.7188 231.062C32.5312 235.469 35.9375 239.219 40.3438 239.438C44.7188 239.562 48.5 236.219 48.7188 231.812C49.0625 224.25 48.75 206.656 47.4063 196.375C47.1875 194.5 46.7812 192.375 46.3438 189.875C44.25 178.469 40.75 159.406 44.6563 120.375C49.2813 74.0625 77.75 41.75 114.156 41.75C115.875 41.75 117.562 41.1875 118.969 40.125C139.875 24.4688 178.406 16 204 16ZM202.406 32.0312C198 32.375 194.75 36.2188 195.094 40.625L196.344 56.125C196.656 60.3125 200.156 63.4688 204.281 63.4688C204.5 63.4688 204.719 63.4688 204.938 63.4375C209.344 63.0938 212.625 59.25 212.281 54.8125L211.031 39.375C210.688 34.9688 206.906 31.625 202.406 32.0312ZM247.344 34.1875C242.969 33.4688 238.844 36.4062 238.125 40.7812L235.625 56.0625C234.938 60.4375 237.875 64.5312 242.25 65.25C242.688 65.3125 243.125 65.375 243.531 65.375C247.406 65.375 250.781 62.5625 251.438 58.625L253.938 43.375C254.656 39 251.688 34.875 247.344 34.1875ZM287.156 48.125C284.031 48.0938 281.062 49.9062 279.75 52.9375L273.656 67C271.906 71.0625 273.781 75.7812 277.844 77.5C278.875 77.9688 279.938 78.1875 281 78.1875C284.094 78.1875 287.062 76.375 288.375 73.375L294.406 59.3125C296.188 55.25 294.312 50.5312 290.25 48.7812C289.25 48.3438 288.188 48.125 287.156 48.125ZM322.344 73.25C320.312 73.5 318.375 74.5312 317 76.2812L307.781 88.1562C305.094 91.6562 305.719 96.6875 309.219 99.375C310.656 100.531 312.406 101.063 314.125 101.063C316.5 101.063 318.875 100 320.438 97.9688L329.656 86.0938C332.375 82.5938 331.719 77.5625 328.25 74.875C326.5 73.5 324.375 73 322.344 73.25ZM122.531 109.063C115.094 108.406 107.594 111.844 103.281 118.375L82.6562 149.688C80.25 153.375 81.25 158.344 84.9688 160.75C86.3125 161.656 87.8438 162.094 89.3438 162.094C91.9375 162.094 94.5 160.812 96.0312 158.5L116.656 127.156C118 125.156 120.625 124.375 122.875 125.469L142.969 135.25C179.469 153.062 218.094 162.094 257.719 162.094C262.156 162.094 265.719 158.5 265.719 154.094C265.719 149.656 262.156 146.094 257.719 146.094C220.562 146.094 184.281 137.594 150 120.875L129.875 111.094C127.5 109.938 125.031 109.281 122.531 109.063ZM292.094 146.094C287.656 146.094 284.094 149.688 284.094 154.094C284.094 158.5 287.656 162.094 292.094 162.094H317.875C322.281 162.094 325.875 158.5 325.875 154.094C325.875 149.688 322.281 146.094 317.875 146.094H292.094ZM134 224C125.156 224 118 231.156 118 240C118 248.844 125.156 256 134 256C142.844 256 150 248.844 150 240C150 231.156 142.844 224 134 224ZM286 224C277.156 224 270 231.156 270 240C270 248.844 277.156 256 286 256C294.844 256 302 248.844 302 240C302 231.156 294.844 224 286 224Z" fill="#2A2D34"/>
</svg>
